<?xml version="1.0" encoding="UTF-8"?>
<!DOCTYPE svg PUBLIC "-//W3C//DTD SVG 1.1//EN" "http://www.w3.org/Graphics/SVG/1.1/DTD/svg11.dtd">
<svg xmlns="http://www.w3.org/2000/svg" version="1.1" width="48px" height="48px" style="shape-rendering:geometricPrecision; text-rendering:geometricPrecision; image-rendering:optimizeQuality; fill-rule:evenodd; clip-rule:evenodd" xmlns:xlink="http://www.w3.org/1999/xlink">
<g><path style="opacity:0.966" fill="#040527" d="M 39.5,9.5 C 39.5,16.1667 39.5,22.8333 39.5,29.5C 38.5,29.5 37.5,29.5 36.5,29.5C 36.5,22.8333 36.5,16.1667 36.5,9.5C 36.0472,8.54163 35.3805,7.7083 34.5,7C 27.1667,6.33333 19.8333,6.33333 12.5,7C 10.8446,8.44425 10.178,10.2776 10.5,12.5C 9.5,12.5 8.5,12.5 7.5,12.5C 7.22288,9.55247 7.55621,6.71914 8.5,4C 18.5,3.33333 28.5,3.33333 38.5,4C 39.4061,5.69946 39.7394,7.5328 39.5,9.5 Z"/></g>
<g><path style="opacity:0.994" fill="#9c9ccb" d="M 36.5,9.5 C 36.5,16.1667 36.5,22.8333 36.5,29.5C 37.5,29.5 38.5,29.5 39.5,29.5C 39.5,22.8333 39.5,16.1667 39.5,9.5C 41.4791,21.1201 42.1458,33.1201 41.5,45.5C 31.7734,46.1389 22.4401,45.4722 13.5,43.5C 21.1739,43.6664 28.8406,43.4997 36.5,43C 39.1243,40.8467 40.1243,38.0134 39.5,34.5C 38.5,34.5 37.5,34.5 36.5,34.5C 36.5,36.5 36.5,38.5 36.5,40.5C 28.8333,40.5 21.1667,40.5 13.5,40.5C 13.5,38.8333 13.5,37.1667 13.5,35.5C 16.1667,35.5 18.8333,35.5 21.5,35.5C 21.5,34.5 21.5,33.5 21.5,32.5C 18.8333,32.5 16.1667,32.5 13.5,32.5C 13.5,31.1667 13.5,29.8333 13.5,28.5C 16.1667,28.5 18.8333,28.5 21.5,28.5C 21.5,27.5 21.5,26.5 21.5,25.5C 18.8333,25.5 16.1667,25.5 13.5,25.5C 13.5,24.1667 13.5,22.8333 13.5,21.5C 16.1667,21.5 18.8333,21.5 21.5,21.5C 21.5,20.5 21.5,19.5 21.5,18.5C 18.8333,18.5 16.1667,18.5 13.5,18.5C 13.5,17.1667 13.5,15.8333 13.5,14.5C 16.1667,14.5 18.8333,14.5 21.5,14.5C 21.5,13.5 21.5,12.5 21.5,11.5C 18.8333,11.5 16.1667,11.5 13.5,11.5C 20.7605,9.53486 28.4271,8.86819 36.5,9.5 Z"/></g>
<g><path style="opacity:1" fill="#0c112e" d="M 13.5,11.5 C 16.1667,11.5 18.8333,11.5 21.5,11.5C 21.5,12.5 21.5,13.5 21.5,14.5C 18.8333,14.5 16.1667,14.5 13.5,14.5C 13.5,13.5 13.5,12.5 13.5,11.5 Z"/></g>
<g><path style="opacity:1" fill="#070a29" d="M 24.5,11.5 C 25.5,11.5 26.5,11.5 27.5,11.5C 27.5,19.5 27.5,27.5 27.5,35.5C 26.5,35.5 25.5,35.5 24.5,35.5C 24.5,27.5 24.5,19.5 24.5,11.5 Z"/></g>
<g><path style="opacity:1" fill="#181b3c" d="M 30.5,11.5 C 31.5,11.5 32.5,11.5 33.5,11.5C 33.5,12.5 33.5,13.5 33.5,14.5C 32.5,14.5 31.5,14.5 30.5,14.5C 30.5,13.5 30.5,12.5 30.5,11.5 Z"/></g>
<g><path style="opacity:0.979" fill="#040627" d="M 13.5,40.5 C 21.1667,40.5 28.8333,40.5 36.5,40.5C 36.5,38.5 36.5,36.5 36.5,34.5C 37.5,34.5 38.5,34.5 39.5,34.5C 40.1243,38.0134 39.1243,40.8467 36.5,43C 28.8406,43.4997 21.1739,43.6664 13.5,43.5C 11.5328,43.7394 9.69946,43.4061 8,42.5C 7.50021,33.1726 7.33355,23.8393 7.5,14.5C 8.5,14.5 9.5,14.5 10.5,14.5C 10.3336,22.5069 10.5003,30.5069 11,38.5C 11.7083,39.3805 12.5416,40.0472 13.5,40.5 Z"/></g>
<g><path style="opacity:1" fill="#0c112e" d="M 13.5,18.5 C 16.1667,18.5 18.8333,18.5 21.5,18.5C 21.5,19.5 21.5,20.5 21.5,21.5C 18.8333,21.5 16.1667,21.5 13.5,21.5C 13.5,20.5 13.5,19.5 13.5,18.5 Z"/></g>
<g><path style="opacity:1" fill="#181b3c" d="M 30.5,18.5 C 31.5,18.5 32.5,18.5 33.5,18.5C 33.5,19.5 33.5,20.5 33.5,21.5C 32.5,21.5 31.5,21.5 30.5,21.5C 30.5,20.5 30.5,19.5 30.5,18.5 Z"/></g>
<g><path style="opacity:1" fill="#0c112e" d="M 13.5,25.5 C 16.1667,25.5 18.8333,25.5 21.5,25.5C 21.5,26.5 21.5,27.5 21.5,28.5C 18.8333,28.5 16.1667,28.5 13.5,28.5C 13.5,27.5 13.5,26.5 13.5,25.5 Z"/></g>
<g><path style="opacity:1" fill="#181b3c" d="M 30.5,25.5 C 31.5,25.5 32.5,25.5 33.5,25.5C 33.5,26.5 33.5,27.5 33.5,28.5C 32.5,28.5 31.5,28.5 30.5,28.5C 30.5,27.5 30.5,26.5 30.5,25.5 Z"/></g>
<g><path style="opacity:1" fill="#0c112e" d="M 13.5,32.5 C 16.1667,32.5 18.8333,32.5 21.5,32.5C 21.5,33.5 21.5,34.5 21.5,35.5C 18.8333,35.5 16.1667,35.5 13.5,35.5C 13.5,34.5 13.5,33.5 13.5,32.5 Z"/></g>
<g><path style="opacity:1" fill="#181b3c" d="M 30.5,32.5 C 31.5,32.5 32.5,32.5 33.5,32.5C 33.5,33.5 33.5,34.5 33.5,35.5C 32.5,35.5 31.5,35.5 30.5,35.5C 30.5,34.5 30.5,33.5 30.5,32.5 Z"/></g>
</svg>
